<svg width="321" height="123" viewBox="0 0 321 123" fill="none" xmlns="http://www.w3.org/2000/svg">
<rect x="0.296265" y="0.4375" width="26.2103" height="10" rx="5" fill="#81818B" fill-opacity="0.2"/>
<rect x="42.2328" y="0.4375" width="26.2103" height="10" rx="5" fill="#81818B" fill-opacity="0.2"/>
<rect x="84.1693" y="0.4375" width="26.2103" height="10" rx="5" fill="#81818B" fill-opacity="0.2"/>
<rect x="126.106" y="0.4375" width="26.2103" height="10" rx="5" fill="#81818B" fill-opacity="0.2"/>
<rect x="168.042" y="0.4375" width="26.2103" height="10" rx="5" fill="#81818B" fill-opacity="0.2"/>
<rect x="209.979" y="0.4375" width="26.2103" height="10" rx="5" fill="#81818B" fill-opacity="0.2"/>
<rect x="251.915" y="0.4375" width="26.2103" height="10" rx="5" fill="#81818B" fill-opacity="0.2"/>
<rect x="293.852" y="0.4375" width="26.2103" height="10" rx="5" fill="#81818B" fill-opacity="0.2"/>
<rect x="0.296265" y="16.4375" width="26.2103" height="10" rx="5" fill="#81818B" fill-opacity="0.2"/>
<rect x="42.2328" y="16.4375" width="26.2103" height="10" rx="5" fill="#81818B" fill-opacity="0.2"/>
<rect x="84.1693" y="16.4375" width="26.2103" height="10" rx="5" fill="#81818B" fill-opacity="0.2"/>
<rect x="126.106" y="16.4375" width="26.2103" height="10" rx="5" fill="#81818B" fill-opacity="0.2"/>
<rect x="168.042" y="16.4375" width="26.2103" height="10" rx="5" fill="#81818B" fill-opacity="0.2"/>
<rect x="209.979" y="16.4375" width="26.2103" height="10" rx="5" fill="#81818B" fill-opacity="0.2"/>
<rect x="251.915" y="16.4375" width="26.2103" height="10" rx="5" fill="#81818B" fill-opacity="0.2"/>
<rect x="293.852" y="16.4375" width="26.2103" height="10" rx="5" fill="#81818B" fill-opacity="0.2"/>
<rect x="0.296265" y="32.4375" width="26.2103" height="10" rx="5" fill="#81818B" fill-opacity="0.2"/>
<rect x="42.2328" y="32.4375" width="26.2103" height="10" rx="5" fill="#81818B" fill-opacity="0.2"/>
<rect x="84.1693" y="32.4375" width="26.2103" height="10" rx="5" fill="#81818B" fill-opacity="0.2"/>
<rect x="126.106" y="32.4375" width="26.2103" height="10" rx="5" fill="#81818B" fill-opacity="0.2"/>
<rect x="168.042" y="32.4375" width="26.2103" height="10" rx="5" fill="#81818B" fill-opacity="0.2"/>
<rect x="209.979" y="32.4375" width="26.2103" height="10" rx="5" fill="#81818B" fill-opacity="0.2"/>
<rect x="251.915" y="32.4375" width="26.2103" height="10" rx="5" fill="#81818B" fill-opacity="0.2"/>
<rect x="293.852" y="32.4375" width="26.2103" height="10" rx="5" fill="#81818B" fill-opacity="0.2"/>
<rect x="0.296265" y="48.4375" width="26.2103" height="10" rx="5" fill="#81818B" fill-opacity="0.2"/>
<rect x="42.2328" y="48.4375" width="26.2103" height="10" rx="5" fill="#81818B" fill-opacity="0.2"/>
<rect x="84.1693" y="48.4375" width="26.2103" height="10" rx="5" fill="#81818B" fill-opacity="0.2"/>
<rect x="126.106" y="48.4375" width="26.2103" height="10" rx="5" fill="#81818B" fill-opacity="0.2"/>
<rect x="168.042" y="48.4375" width="26.2103" height="10" rx="5" fill="#81818B" fill-opacity="0.2"/>
<rect x="209.979" y="48.4375" width="26.2103" height="10" rx="5" fill="#81818B" fill-opacity="0.2"/>
<rect x="251.915" y="48.4375" width="26.2103" height="10" rx="5" fill="#81818B" fill-opacity="0.2"/>
<rect x="293.852" y="48.4375" width="26.2103" height="10" rx="5" fill="#81818B" fill-opacity="0.2"/>
<rect x="0.296265" y="64.4375" width="26.2103" height="10" rx="5" fill="#81818B" fill-opacity="0.2"/>
<rect x="42.2328" y="64.4375" width="26.2103" height="10" rx="5" fill="#81818B" fill-opacity="0.2"/>
<rect x="84.1693" y="64.4375" width="26.2103" height="10" rx="5" fill="#81818B" fill-opacity="0.2"/>
<rect x="126.106" y="64.4375" width="26.2103" height="10" rx="5" fill="#81818B" fill-opacity="0.2"/>
<rect x="168.042" y="64.4375" width="26.2103" height="10" rx="5" fill="#81818B" fill-opacity="0.2"/>
<rect x="209.979" y="64.4375" width="26.2103" height="10" rx="5" fill="#81818B" fill-opacity="0.2"/>
<rect x="251.915" y="64.4375" width="26.2103" height="10" rx="5" fill="#81818B" fill-opacity="0.2"/>
<rect x="293.852" y="64.4375" width="26.2103" height="10" rx="5" fill="#81818B" fill-opacity="0.2"/>
<rect x="0.296265" y="80.4375" width="26.2103" height="10" rx="5" fill="#81818B" fill-opacity="0.2"/>
<rect x="42.2328" y="80.4375" width="26.2103" height="10" rx="5" fill="#81818B" fill-opacity="0.2"/>
<rect x="84.1693" y="80.4375" width="26.2103" height="10" rx="5" fill="#81818B" fill-opacity="0.2"/>
<rect x="126.106" y="80.4375" width="26.2103" height="10" rx="5" fill="#81818B" fill-opacity="0.2"/>
<rect x="168.042" y="80.4375" width="26.2103" height="10" rx="5" fill="#81818B" fill-opacity="0.2"/>
<rect x="209.979" y="80.4375" width="26.2103" height="10" rx="5" fill="#81818B" fill-opacity="0.2"/>
<rect x="251.915" y="80.4375" width="26.2103" height="10" rx="5" fill="#81818B" fill-opacity="0.2"/>
<rect x="293.852" y="80.4375" width="26.2103" height="10" rx="5" fill="#81818B" fill-opacity="0.2"/>
<rect x="0.296265" y="96.4375" width="26.2103" height="10" rx="5" fill="#81818B" fill-opacity="0.2"/>
<rect x="42.2328" y="96.4375" width="26.2103" height="10" rx="5" fill="#81818B" fill-opacity="0.2"/>
<rect x="84.1693" y="96.4375" width="26.2103" height="10" rx="5" fill="#81818B" fill-opacity="0.2"/>
<rect x="126.106" y="96.4375" width="26.2103" height="10" rx="5" fill="#81818B" fill-opacity="0.2"/>
<rect x="168.042" y="96.4375" width="26.2103" height="10" rx="5" fill="#81818B" fill-opacity="0.2"/>
<rect x="209.979" y="96.4375" width="26.2103" height="10" rx="5" fill="#81818B" fill-opacity="0.2"/>
<rect x="251.915" y="96.4375" width="26.2103" height="10" rx="5" fill="#81818B" fill-opacity="0.2"/>
<rect x="293.852" y="96.4375" width="26.2103" height="10" rx="5" fill="#81818B" fill-opacity="0.2"/>
<rect x="0.296265" y="112.438" width="26.2103" height="10" rx="5" fill="#81818B" fill-opacity="0.2"/>
<rect x="42.2328" y="112.438" width="26.2103" height="10" rx="5" fill="#81818B" fill-opacity="0.2"/>
<rect x="84.1693" y="112.438" width="26.2103" height="10" rx="5" fill="#81818B" fill-opacity="0.2"/>
<rect x="126.106" y="112.438" width="26.2103" height="10" rx="5" fill="#81818B" fill-opacity="0.2"/>
<rect x="168.042" y="112.438" width="26.2103" height="10" rx="5" fill="#81818B" fill-opacity="0.2"/>
<rect x="209.979" y="112.438" width="26.2103" height="10" rx="5" fill="#81818B" fill-opacity="0.2"/>
<rect x="251.915" y="112.438" width="26.2103" height="10" rx="5" fill="#81818B" fill-opacity="0.2"/>
<rect x="293.852" y="112.438" width="26.2103" height="10" rx="5" fill="#81818B" fill-opacity="0.2"/>
</svg>
