<svg width="138" height="33" viewBox="0 0 138 33" fill="none" xmlns="http://www.w3.org/2000/svg">
<path d="M50.6446 12.3896C50.298 11.751 49.7962 11.2676 49.1394 10.9392C48.5008 10.5926 47.7437 10.4192 46.868 10.4192C45.3536 10.4192 44.1405 10.921 43.2282 11.9244C42.3159 12.9096 41.8599 14.2323 41.8599 15.8926C41.8599 17.6622 42.3343 19.0489 43.2829 20.0523C44.2499 21.0375 45.5726 21.5301 47.2511 21.5301C48.4005 21.5301 49.3675 21.2382 50.152 20.6544C50.9548 20.0705 51.5385 19.2313 51.9035 18.1366H45.9649V14.6884H56.1453V19.0397C55.7987 20.2073 55.2057 21.293 54.3665 22.2964C53.5455 23.2998 52.4964 24.1117 51.2193 24.732C49.9422 25.3523 48.5008 25.6625 46.8953 25.6625C44.9979 25.6625 43.3011 25.252 41.8051 24.431C40.3273 23.5918 39.1688 22.4332 38.3296 20.9554C37.5086 19.4776 37.0981 17.79 37.0981 15.8926C37.0981 13.9951 37.5086 12.3075 38.3296 10.8297C39.1688 9.3337 40.3273 8.17514 41.8051 7.35414C43.2829 6.51493 44.9705 6.09527 46.868 6.09527C49.1668 6.09527 51.1007 6.65176 52.6697 7.76464C54.257 8.87752 55.3061 10.4192 55.8169 12.3896H50.6446ZM63.4172 12.8001C63.9645 11.9609 64.6487 11.3041 65.4697 10.8297C66.2907 10.3371 67.2029 10.0908 68.2063 10.0908V15.0442H66.9201C65.7525 15.0442 64.8768 15.2997 64.2929 15.8105C63.709 16.3031 63.4172 17.1788 63.4172 18.4377V25.5257H58.7375V10.255H63.4172V12.8001ZM77.3943 25.7446C75.8982 25.7446 74.5482 25.4253 73.344 24.7868C72.1581 24.1482 71.2185 23.236 70.5253 22.0501C69.8501 20.8642 69.5127 19.4776 69.5127 17.8903C69.5127 16.3213 69.8593 14.9439 70.5526 13.758C71.2458 12.5538 72.1946 11.6325 73.3988 10.9939C74.6029 10.3553 75.9529 10.0361 77.449 10.0361C78.9451 10.0361 80.2952 10.3553 81.4993 10.9939C82.7035 11.6325 83.6521 12.5538 84.3455 13.758C85.0387 14.9439 85.3854 16.3213 85.3854 17.8903C85.3854 19.4594 85.0296 20.8459 84.3181 22.0501C83.6248 23.236 82.6669 24.1482 81.4446 24.7868C80.2405 25.4253 78.8903 25.7446 77.3943 25.7446ZM77.3943 21.6943C78.2883 21.6943 79.0454 21.3659 79.6657 20.7091C80.3042 20.0523 80.6236 19.1127 80.6236 17.8903C80.6236 16.668 80.3134 15.7284 79.6931 15.0716C79.091 14.4148 78.343 14.0864 77.449 14.0864C76.5368 14.0864 75.7797 14.4148 75.1776 15.0716C74.5755 15.7102 74.2745 16.6497 74.2745 17.8903C74.2745 19.1127 74.5664 20.0523 75.1502 20.7091C75.7523 21.3659 76.5003 21.6943 77.3943 21.6943ZM109.788 10.255L105.656 25.5257H100.484L98.0759 15.6189L95.5855 25.5257H90.4406L86.2808 10.255H90.9605L93.1225 21.1743L95.695 10.255H100.648L103.248 21.1196L105.382 10.255H109.788ZM119.236 14.1411H116.718V25.5257H112.039V14.1411H110.342V10.255H112.039V9.81715C112.039 7.938 112.577 6.51493 113.653 5.54793C114.73 4.56273 116.308 4.07013 118.388 4.07013C118.734 4.07013 118.99 4.07926 119.154 4.0975V8.06567C118.26 8.01094 117.631 8.13862 117.266 8.44881C116.901 8.759 116.718 9.31539 116.718 10.1182V10.255H119.236V14.1411ZM137.034 10.255L127.456 32.7778H122.42L125.923 25.0057L119.711 10.255H124.938L128.468 19.806L131.971 10.255H137.034Z" fill="white"/>
<path d="M16.1962 7.63202C16.1962 3.56279 19.4949 0.264053 23.5641 0.264053H30.9321V7.63202C30.9321 11.7012 27.6334 15 23.5641 15C19.4949 15 16.1962 11.7012 16.1962 7.63202Z" fill="#FF6D35"/>
<path d="M23.564 32.6771C19.4948 32.6771 16.196 29.3784 16.196 25.3091V17.9412H23.564C27.6332 17.9412 30.932 21.2399 30.932 25.3091C30.932 29.3784 27.6332 32.6771 23.564 32.6771Z" fill="#5CC97B"/>
<path d="M13.8745 15.6522C13.8745 7.47541 7.74827 0.846939 0.191162 0.846939V25.0214C0.191162 29.1097 3.25428 32.424 7.03294 32.424C10.8114 32.424 13.8745 29.1097 13.8745 25.0214V15.6522Z" fill="#3D96F4"/>
</svg>
