<svg aria-hidden="true" style="position: absolute; width: 0; height: 0; overflow: hidden;" version="1.1" xmlns="http://www.w3.org/2000/svg" xmlns:xlink="http://www.w3.org/1999/xlink">
<defs>
<symbol id="icon-client1" viewBox="0 0 171 32">
<path fill="#81818b" style="fill: var(--color1, #81818b)" d="M5.201 3.515c2.298-2.093 5.418-3.314 8.58-3.466 1.082 0 2.168 0.006 3.25-0.003-0.055 1.107 0 2.217-0.033 3.324-0.153 2.474-1.112 4.892-2.727 6.833-2.1 2.61-5.311 4.362-8.72 4.815-1.489 0.229-3 0.084-4.498 0.124 0.026-1.218-0.055-2.44 0.045-3.655 0.293-3.013 1.784-5.9 4.102-7.971z"></path>
<path fill="#81818b" style="fill: var(--color1, #81818b)" d="M18.033 0.046c1.16 0.012 2.321-0.006 3.484 0.006 2.896 0.195 5.753 1.256 7.933 3.094 2.405 1.969 4.053 4.784 4.475 7.791 0.185 1.395 0.068 2.806 0.14 4.207-1.014-0.003-2.025-0.006-3.039 0-2.493-0.065-4.943-0.834-7.030-2.13-0.962-0.657-1.95-1.324-2.672-2.235-1.583-1.687-2.659-3.804-3.065-6.036-0.306-1.55-0.182-3.131-0.228-4.697z"></path>
<path fill="#81818b" style="fill: var(--color1, #81818b)" d="M1.056 16.031c1.030 0.056 2.064-0.047 3.091 0.062 4.397 0.090 8.665 2.446 10.943 6.033 1.307 2.009 2.009 4.39 1.918 6.755-0.003 0.776 0.010 1.547-0.013 2.32-1.632-0.047-3.279 0.080-4.895-0.221-3.588-0.576-6.887-2.613-8.873-5.521-1.505-2.114-2.256-4.697-2.178-7.248 0-0.729 0-1.454 0.006-2.179z"></path>
<path fill="#81818b" style="fill: var(--color1, #81818b)" d="M28.574 16.359c1.768-0.375 3.591-0.313 5.388-0.313l0.078 0.074c-0.039 1.621 0.094 3.261-0.247 4.864-0.718 3.596-3.214 6.808-6.572 8.572-2.090 1.11-4.488 1.656-6.877 1.631-0.764 0.003-1.531-0.012-2.294 0.009 0-1.342-0.059-2.691 0.101-4.027 0.371-3.233 2.204-6.244 4.839-8.277 1.631-1.228 3.549-2.117 5.584-2.533z"></path>
<path fill="#81818b" style="fill: var(--color1, #81818b)" d="M47.383 25.196c0 0.546-0.198 1.008-0.594 1.386-0.375 0.357-0.848 0.535-1.42 0.535-0.55 0-1.012-0.178-1.387-0.535-0.374-0.378-0.561-0.84-0.561-1.386v-19.46c0-0.546 0.187-0.997 0.561-1.354 0.396-0.378 0.88-0.567 1.453-0.567s1.034 0.189 1.386 0.567c0.374 0.357 0.561 0.808 0.561 1.354v19.46z"></path>
<path fill="#81818b" style="fill: var(--color1, #81818b)" d="M63.283 10.27c0.572 0 1.045 0.189 1.42 0.567 0.374 0.357 0.561 0.808 0.561 1.354v7.998c0 2.225-0.649 3.988-1.947 5.29s-3.169 1.952-5.612 1.952c-2.442 0-4.313-0.651-5.611-1.952-1.276-1.302-1.915-3.065-1.915-5.29v-7.998c0-0.546 0.187-0.997 0.561-1.354 0.374-0.378 0.847-0.567 1.42-0.567s1.045 0.189 1.419 0.567c0.375 0.357 0.562 0.808 0.562 1.354v7.998c0 1.281 0.297 2.236 0.891 2.865 0.594 0.609 1.486 0.913 2.673 0.913 1.211 0 2.113-0.304 2.708-0.913 0.594-0.63 0.891-1.585 0.891-2.865v-7.998c0-0.546 0.187-0.997 0.561-1.354 0.374-0.378 0.847-0.567 1.42-0.567z"></path>
<path fill="#81818b" style="fill: var(--color1, #81818b)" d="M77.177 9.955c1.761 0 3.059 0.409 3.895 1.228 0.836 0.798 1.387 1.837 1.65 3.117l-0.561-0.283 0.264-0.504c0.264-0.483 0.671-0.997 1.221-1.543 0.55-0.567 1.21-1.039 1.98-1.417 0.792-0.399 1.673-0.598 2.641-0.598 1.585 0 2.784 0.325 3.598 0.976 0.837 0.651 1.408 1.522 1.716 2.614 0.309 1.071 0.463 2.267 0.463 3.59v8.061c0 0.546-0.187 1.007-0.562 1.386-0.374 0.357-0.847 0.535-1.419 0.535s-1.046-0.178-1.42-0.535c-0.374-0.378-0.561-0.84-0.561-1.386v-8.061c0-0.693-0.088-1.312-0.264-1.858-0.176-0.567-0.496-1.018-0.958-1.354s-1.122-0.504-1.98-0.504c-0.837 0-1.552 0.168-2.146 0.504s-1.046 0.787-1.354 1.354c-0.286 0.546-0.429 1.165-0.429 1.858v8.061c0 0.546-0.187 1.007-0.561 1.386-0.374 0.357-0.848 0.535-1.42 0.535s-1.046-0.178-1.419-0.535c-0.375-0.378-0.562-0.84-0.562-1.386v-8.061c0-0.693-0.088-1.312-0.264-1.858-0.176-0.567-0.495-1.018-0.957-1.354s-1.123-0.504-1.981-0.504c-0.836 0-1.551 0.168-2.146 0.504-0.594 0.336-1.045 0.787-1.353 1.354-0.286 0.546-0.429 1.165-0.429 1.858v8.061c0 0.546-0.187 1.007-0.561 1.386-0.375 0.357-0.847 0.535-1.42 0.535s-1.045-0.178-1.42-0.535c-0.374-0.378-0.561-0.84-0.561-1.386v-13.005c0-0.546 0.187-0.997 0.561-1.354 0.375-0.378 0.847-0.567 1.42-0.567s1.045 0.189 1.42 0.567c0.374 0.357 0.561 0.808 0.561 1.354v1.354l-0.496-0.095c0.198-0.357 0.474-0.735 0.826-1.134 0.352-0.42 0.781-0.808 1.287-1.165s1.067-0.64 1.683-0.85c0.617-0.231 1.288-0.346 2.014-0.346z"></path>
<path fill="#81818b" style="fill: var(--color1, #81818b)" d="M100.412 25.196c0 0.546-0.187 1.007-0.562 1.386-0.374 0.357-0.847 0.535-1.419 0.535s-1.045-0.178-1.42-0.535c-0.374-0.378-0.561-0.84-0.561-1.386v-13.005c0-0.546 0.187-0.997 0.561-1.354 0.374-0.378 0.848-0.567 1.42-0.567s1.046 0.189 1.419 0.567c0.375 0.357 0.562 0.808 0.562 1.354v13.005zM98.398 8.224c-0.748 0-1.276-0.115-1.585-0.346-0.307-0.231-0.461-0.64-0.461-1.228v-0.598c0-0.609 0.165-1.018 0.495-1.228 0.352-0.231 0.881-0.346 1.585-0.346 0.771 0 1.31 0.115 1.617 0.346 0.309 0.231 0.463 0.64 0.463 1.228v0.598c0 0.609-0.165 1.029-0.496 1.26-0.329 0.21-0.869 0.315-1.617 0.315z"></path>
<path fill="#81818b" style="fill: var(--color1, #81818b)" d="M112.273 9.955c1.629 0 2.861 0.325 3.697 0.976 0.859 0.651 1.441 1.522 1.749 2.614 0.331 1.071 0.495 2.267 0.495 3.59v8.061c0 0.546-0.187 1.007-0.561 1.386-0.373 0.357-0.847 0.535-1.42 0.535-0.572 0-1.044-0.178-1.419-0.535-0.374-0.378-0.562-0.84-0.562-1.386v-8.061c0-0.693-0.098-1.312-0.295-1.858-0.177-0.567-0.507-1.018-0.991-1.354s-1.178-0.504-2.080-0.504c-0.88 0-1.629 0.168-2.244 0.504-0.594 0.336-1.056 0.787-1.387 1.354-0.308 0.546-0.463 1.165-0.463 1.858v8.061c0 0.546-0.186 1.007-0.56 1.386-0.374 0.357-0.848 0.535-1.42 0.535s-1.045-0.178-1.419-0.535c-0.375-0.378-0.562-0.84-0.562-1.386v-13.005c0-0.546 0.187-0.997 0.562-1.354 0.374-0.378 0.847-0.567 1.419-0.567s1.046 0.189 1.42 0.567c0.374 0.357 0.56 0.808 0.56 1.354v1.354l-0.494-0.095c0.198-0.357 0.483-0.735 0.858-1.134 0.374-0.42 0.815-0.808 1.321-1.165 0.507-0.357 1.078-0.64 1.716-0.85 0.639-0.231 1.332-0.346 2.080-0.346z"></path>
<path fill="#81818b" style="fill: var(--color1, #81818b)" d="M137.813 18.709c0 1.721-0.407 3.243-1.221 4.566-0.793 1.302-1.871 2.32-3.235 3.054-1.343 0.735-2.85 1.102-4.523 1.102s-3.191-0.367-4.555-1.102c-1.343-0.735-2.421-1.753-3.235-3.054-0.793-1.322-1.188-2.844-1.188-4.566s0.396-3.233 1.188-4.534c0.814-1.322 1.892-2.351 3.235-3.086 1.363-0.756 2.882-1.134 4.555-1.134s3.18 0.378 4.523 1.134c1.364 0.735 2.443 1.763 3.235 3.086 0.814 1.302 1.221 2.813 1.221 4.534zM133.852 18.709c0-1.070-0.23-1.994-0.693-2.771-0.441-0.798-1.045-1.417-1.815-1.858-0.748-0.441-1.584-0.661-2.509-0.661-0.924 0-1.772 0.22-2.542 0.661-0.748 0.441-1.354 1.060-1.815 1.858-0.439 0.777-0.66 1.7-0.66 2.771 0 1.050 0.221 1.973 0.66 2.771 0.462 0.777 1.068 1.385 1.815 1.826 0.77 0.441 1.618 0.661 2.542 0.661 0.925 0 1.761-0.22 2.509-0.661 0.77-0.441 1.375-1.050 1.815-1.826 0.463-0.798 0.693-1.721 0.693-2.771z"></path>
<path fill="#81818b" style="fill: var(--color1, #81818b)" d="M152.577 10.27c0.572 0 1.045 0.189 1.42 0.567 0.373 0.357 0.561 0.808 0.561 1.354v7.998c0 2.225-0.65 3.988-1.948 5.29-1.299 1.302-3.169 1.952-5.612 1.952s-4.314-0.651-5.612-1.952c-1.277-1.302-1.915-3.065-1.915-5.29v-7.998c0-0.546 0.187-0.997 0.561-1.354 0.374-0.378 0.847-0.567 1.42-0.567 0.572 0 1.045 0.189 1.42 0.567 0.373 0.357 0.561 0.808 0.561 1.354v7.998c0 1.281 0.297 2.236 0.891 2.865 0.594 0.609 1.486 0.913 2.674 0.913 1.21 0 2.113-0.304 2.706-0.913 0.595-0.63 0.892-1.585 0.892-2.865v-7.998c0-0.546 0.188-0.997 0.561-1.354 0.374-0.378 0.848-0.567 1.42-0.567z"></path>
<path fill="#81818b" style="fill: var(--color1, #81818b)" d="M156.172 24.503c-0.22-0.294-0.319-0.672-0.297-1.134s0.308-0.861 0.859-1.197c0.352-0.21 0.725-0.294 1.122-0.252 0.396 0.021 0.781 0.21 1.155 0.567 0.639 0.609 1.31 1.081 2.014 1.417s1.584 0.504 2.64 0.504c0.331-0.021 0.693-0.063 1.090-0.126 0.396-0.084 0.737-0.252 1.023-0.504 0.307-0.273 0.462-0.682 0.462-1.228 0-0.462-0.165-0.829-0.495-1.102-0.331-0.273-0.77-0.504-1.321-0.693-0.528-0.189-1.122-0.367-1.782-0.535-0.683-0.189-1.387-0.399-2.113-0.63-0.704-0.231-1.354-0.525-1.948-0.882-0.593-0.378-1.077-0.871-1.452-1.48s-0.561-1.375-0.561-2.299c0-1.050 0.307-1.942 0.924-2.677s1.409-1.301 2.377-1.7c0.991-0.399 2.025-0.598 3.103-0.598 0.683 0 1.397 0.084 2.146 0.252 0.748 0.147 1.463 0.399 2.146 0.756 0.682 0.336 1.254 0.787 1.716 1.354 0.241 0.315 0.385 0.693 0.429 1.134s-0.165 0.84-0.627 1.197c-0.33 0.252-0.715 0.367-1.155 0.346-0.439-0.042-0.803-0.189-1.089-0.441-0.374-0.462-0.88-0.829-1.519-1.102-0.617-0.273-1.331-0.409-2.145-0.409-0.331 0-0.693 0.042-1.090 0.126-0.373 0.063-0.704 0.22-0.99 0.472-0.286 0.231-0.429 0.609-0.429 1.134 0 0.483 0.164 0.871 0.495 1.165 0.33 0.273 0.77 0.504 1.321 0.693 0.572 0.168 1.178 0.336 1.815 0.504 0.66 0.168 1.331 0.367 2.014 0.598s1.309 0.535 1.882 0.913c0.572 0.378 1.034 0.871 1.386 1.48 0.353 0.588 0.528 1.343 0.528 2.267 0 1.071-0.33 1.984-0.99 2.739s-1.486 1.333-2.476 1.732c-0.99 0.378-2.003 0.567-3.037 0.567-1.298 0-2.596-0.209-3.895-0.629-1.298-0.441-2.377-1.207-3.235-2.299z"></path>
</symbol>
<symbol id="icon-client2" viewBox="0 0 128 32">
<path fill="#81818b" style="fill: var(--color1, #81818b)" d="M3.106 17.41l8.677-3.761 4.994 2.82 1.009 9.253-6.154-0.049 0.908-6.433-1.059-0.594-5.196 3.958-3.178-5.195z"></path>
<path fill="#81818b" style="fill: var(--color1, #81818b)" d="M17.333 16.073l7.668 5.492 3.027-5.294-6.155-2.424v-1.188l6.155-2.474-3.027-5.245-7.668 5.492v5.641z"></path>
<path fill="#81818b" style="fill: var(--color1, #81818b)" d="M16.777 9.988l1.009-9.253-6.154 0.099 0.908 6.432-1.059 0.594-5.247-3.958-3.128 5.146 8.677 3.76 4.994-2.82z"></path>
<path fill="#81818b" style="fill: var(--color1, #81818b)" d="M48.56 12.12v8.668h3.312v-11.047h-4.824v2.379h1.511z"></path>
<path fill="#81818b" style="fill: var(--color1, #81818b)" d="M48.456 8.189c0.304 0.309 0.766 0.464 1.387 0.464s1.077-0.155 1.366-0.464c0.304-0.323 0.456-0.726 0.456-1.21 0-0.497-0.152-0.9-0.456-1.21-0.289-0.323-0.745-0.484-1.366-0.484s-1.083 0.161-1.387 0.484c-0.289 0.309-0.434 0.712-0.434 1.21 0 0.484 0.145 0.887 0.434 1.21z"></path>
<path fill="#81818b" style="fill: var(--color1, #81818b)" d="M37.029 20.546c0.938 0.417 2.091 0.625 3.457 0.625 1.284 0 2.388-0.195 3.313-0.585s1.635-0.934 2.132-1.633c0.511-0.712 0.766-1.539 0.766-2.479 0-0.914-0.241-1.687-0.724-2.318-0.47-0.645-1.125-1.149-1.967-1.512-0.842-0.376-1.815-0.612-2.919-0.706l-1.159-0.101c-0.69-0.054-1.187-0.235-1.491-0.544s-0.456-0.672-0.456-1.088c0-0.323 0.083-0.618 0.248-0.887 0.166-0.282 0.414-0.504 0.745-0.665 0.345-0.161 0.766-0.242 1.263-0.242 0.524 0 0.959 0.094 1.304 0.282 0.076 0.040 0.148 0.082 0.216 0.127l0.016 0.011c0.025 0.017 0.050 0.035 0.075 0.053 0.21 0.156 0.377 0.341 0.501 0.555 0.179 0.296 0.269 0.625 0.269 0.988h3.312c0-0.968-0.228-1.808-0.683-2.52-0.455-0.726-1.111-1.283-1.966-1.673-0.842-0.403-1.857-0.605-3.044-0.605-1.132 0-2.112 0.188-2.94 0.565-0.828 0.363-1.476 0.887-1.946 1.572-0.456 0.685-0.684 1.499-0.684 2.439 0 1.304 0.449 2.352 1.346 3.145s2.098 1.25 3.602 1.371l1.139 0.101c0.924 0.081 1.594 0.262 2.008 0.544 0.414 0.269 0.621 0.638 0.621 1.109 0 0.216-0.036 0.419-0.109 0.608-0.054 0.141-0.128 0.274-0.222 0.4-0.222 0.282-0.545 0.504-0.973 0.665s-0.959 0.242-1.594 0.242c-0.704 0-1.276-0.094-1.718-0.282-0.442-0.201-0.773-0.464-0.994-0.786-0.207-0.323-0.31-0.672-0.31-1.048h-3.292c0 0.954 0.241 1.801 0.724 2.54 0.483 0.726 1.194 1.304 2.133 1.734z"></path>
<path fill="#81818b" style="fill: var(--color1, #81818b)" d="M59.263 20.929c-1.146 0-2.070-0.134-2.774-0.403-0.704-0.282-1.221-0.746-1.553-1.391-0.317-0.659-0.476-1.545-0.476-2.661v-4.374h-1.718v-2.358h1.718v-2.983h3.084v2.983h3.313v2.358h-3.313v4.496c0 0.524 0.138 0.927 0.414 1.209 0.29 0.269 0.697 0.403 1.222 0.403h1.677v2.721h-1.594z"></path>
<path fill="#81818b" style="fill: var(--color1, #81818b)" d="M64.845 20.687c0.745 0.322 1.601 0.484 2.567 0.484 0.952 0 1.794-0.162 2.526-0.484s1.339-0.773 1.822-1.351c0.483-0.578 0.808-1.237 0.973-1.976h-3.043c-0.138 0.336-0.4 0.618-0.786 0.846s-0.884 0.343-1.491 0.343c-0.376 0-0.712-0.044-1.008-0.13-0.225-0.066-0.427-0.157-0.606-0.273-0.414-0.269-0.718-0.645-0.911-1.129-0.054-0.138-0.099-0.282-0.138-0.432-0.039-0.152-0.071-0.31-0.095-0.475h8.286v-1.089c0-1.008-0.221-1.935-0.662-2.782-0.442-0.86-1.084-1.552-1.925-2.076-0.828-0.538-1.85-0.806-3.064-0.806-0.925 0-1.753 0.161-2.484 0.484-0.717 0.309-1.318 0.732-1.801 1.27s-0.856 1.149-1.118 1.835c-0.248 0.672-0.372 1.377-0.372 2.117v0.403c0 0.712 0.124 1.411 0.372 2.097 0.263 0.672 0.636 1.283 1.118 1.834 0.497 0.538 1.11 0.968 1.843 1.29zM64.711 14.118c0.009-0.043 0.019-0.085 0.029-0.126 0.029-0.114 0.062-0.223 0.1-0.328 0.021-0.059 0.044-0.117 0.068-0.174 0.207-0.497 0.511-0.874 0.911-1.129 0.15-0.095 0.312-0.173 0.486-0.233 0.293-0.1 0.621-0.15 0.984-0.15 0.566 0 1.035 0.128 1.408 0.383 0.386 0.242 0.676 0.598 0.87 1.068 0.016 0.038 0.030 0.077 0.045 0.116 0.023 0.062 0.044 0.126 0.064 0.192 0.029 0.098 0.055 0.199 0.077 0.303 0.016 0.077 0.030 0.156 0.043 0.236h-5.116c0.010-0.054 0.020-0.107 0.032-0.159z"></path>
<path fill="#81818b" style="fill: var(--color1, #81818b)" d="M74.307 20.788v-11.047h2.629v2.782c0.036-0.165 0.077-0.324 0.121-0.476 0.039-0.128 0.081-0.252 0.127-0.371 0.29-0.753 0.724-1.317 1.304-1.693 0.58-0.39 1.29-0.584 2.133-0.584h0.144c0.856 0 1.567 0.195 2.133 0.584 0.58 0.376 1.014 0.941 1.304 1.693l0.023 0.057 0.019 0.052c0.013-0.037 0.027-0.073 0.040-0.109 0.304-0.753 0.746-1.317 1.325-1.693 0.58-0.39 1.29-0.584 2.133-0.584h0.144c0.856 0 1.573 0.195 2.153 0.584 0.594 0.376 1.043 0.941 1.346 1.693s0.456 1.693 0.456 2.822v6.29h-3.313v-6.471c0-0.605-0.165-1.095-0.496-1.471-0.318-0.376-0.773-0.565-1.366-0.565s-1.063 0.195-1.408 0.585c-0.345 0.376-0.517 0.88-0.517 1.512v6.411h-3.333v-6.471c0-0.605-0.166-1.095-0.497-1.471-0.317-0.376-0.766-0.565-1.346-0.565-0.607 0-1.084 0.195-1.429 0.585-0.345 0.376-0.517 0.88-0.517 1.512v6.411h-3.312z"></path>
<path fill="#81818b" style="fill: var(--color1, #81818b)" d="M100.691 18.659v2.129h2.628v-6.774c0-1.021-0.207-1.854-0.621-2.5-0.415-0.659-1.021-1.149-1.822-1.471-0.787-0.323-1.76-0.484-2.919-0.484-0.251 0-0.513 0.003-0.787 0.008-0.162 0.003-0.327 0.007-0.496 0.012-0.456 0.013-0.897 0.034-1.325 0.060l-0.327 0.021c-0.168 0.011-0.325 0.023-0.474 0.034-0.111 0.008-0.217 0.017-0.317 0.025v2.721c0.428-0.027 0.904-0.054 1.429-0.081 0.147-0.008 0.292-0.014 0.436-0.021 0.208-0.009 0.414-0.018 0.618-0.025 0.161-0.006 0.32-0.011 0.478-0.015 0.497-0.013 0.897-0.020 1.201-0.020 0.606 0 1.049 0.141 1.325 0.423s0.414 0.706 0.414 1.27v0.040h-2.049c-1.007 0-1.898 0.128-2.671 0.383-0.772 0.242-1.373 0.625-1.8 1.149-0.429 0.511-0.642 1.169-0.642 1.976 0 0.739 0.173 1.378 0.517 1.915 0.345 0.524 0.822 0.927 1.429 1.209 0.621 0.282 1.339 0.424 2.153 0.424 0.787 0 1.45-0.141 1.988-0.424 0.552-0.282 0.98-0.685 1.284-1.209 0.054-0.089 0.103-0.18 0.15-0.275 0.066-0.135 0.124-0.276 0.176-0.425l0.027-0.078zM100.131 16.696v-0.887h-2.070c-0.58 0-1.028 0.141-1.346 0.423-0.304 0.269-0.455 0.638-0.455 1.109 0 0.221 0.038 0.423 0.113 0.604 0.077 0.182 0.191 0.343 0.342 0.484 0.318 0.269 0.766 0.403 1.346 0.403 0.11 0 0.217-0.005 0.32-0.016 0.084-0.009 0.166-0.021 0.246-0.037 0.151-0.030 0.295-0.073 0.429-0.129 0.304-0.134 0.552-0.356 0.745-0.665s0.304-0.739 0.331-1.29z"></path>
<path fill="#81818b" style="fill: var(--color1, #81818b)" d="M105.302 20.788v-11.047h2.63v3.646c0.126-1.041 0.443-1.88 0.952-2.517 0.691-0.847 1.683-1.27 2.981-1.27h0.435v2.782h-0.828c-0.911 0-1.615 0.242-2.112 0.726-0.497 0.47-0.746 1.156-0.746 2.056v5.625h-3.312z"></path>
<path fill="#81818b" style="fill: var(--color1, #81818b)" d="M116.5 15.627h1.097l3.582 5.161h3.726l-4.541-6.338 3.734-4.709h-3.478l-4.12 5.253v-8.921h-3.312v14.716h3.312v-5.161z"></path>
</symbol>
<symbol id="icon-client3" viewBox="0 0 138 32">
<path fill="#81818b" style="fill: var(--color1, #81818b)" d="M41.229 8.862c1.303 0 2.43 0.21 3.382 0.629 0.966 0.419 1.708 1.014 2.226 1.786s0.778 1.684 0.778 2.739c0 1.042-0.259 1.955-0.778 2.739-0.518 0.771-1.26 1.366-2.226 1.786-0.952 0.406-2.080 0.609-3.382 0.609h-2.962v3.916h-3.403v-14.204h6.364zM41.041 16.471c1.022 0 1.799-0.21 2.331-0.629 0.532-0.433 0.798-1.042 0.798-1.826 0-0.798-0.266-1.407-0.798-1.826-0.532-0.433-1.31-0.649-2.331-0.649h-2.773v4.931h2.773z"></path>
<path fill="#81818b" style="fill: var(--color1, #81818b)" d="M51.893 13.59c0.392-0.527 0.917-0.927 1.575-1.197 0.672-0.271 1.442-0.406 2.311-0.406v2.922c-0.364-0.027-0.609-0.041-0.735-0.041-0.938 0-1.673 0.257-2.205 0.771-0.532 0.5-0.799 1.258-0.799 2.273v5.154h-3.276v-10.916h3.13v1.441z"></path>
<path fill="#81818b" style="fill: var(--color1, #81818b)" d="M61.952 23.227c-1.19 0-2.261-0.236-3.214-0.71-0.938-0.487-1.674-1.157-2.206-2.009s-0.798-1.819-0.798-2.901c0-1.082 0.266-2.049 0.798-2.902s1.267-1.515 2.206-1.988c0.952-0.487 2.023-0.73 3.214-0.73s2.255 0.243 3.193 0.73c0.938 0.473 1.674 1.136 2.206 1.988s0.798 1.819 0.798 2.902c0 1.082-0.266 2.049-0.798 2.901s-1.268 1.522-2.206 2.009c-0.938 0.474-2.003 0.71-3.193 0.71zM61.952 20.63c0.84 0 1.527-0.27 2.059-0.812 0.546-0.555 0.819-1.292 0.819-2.212s-0.273-1.65-0.819-2.191c-0.532-0.555-1.218-0.832-2.059-0.832s-1.533 0.277-2.079 0.832c-0.546 0.541-0.819 1.272-0.819 2.191s0.273 1.657 0.819 2.212c0.546 0.541 1.239 0.812 2.079 0.812z"></path>
<path fill="#81818b" style="fill: var(--color1, #81818b)" d="M83.006 8.862v14.204h-2.794l-7.331-8.624v8.624h-3.361v-14.204h2.815l7.31 8.623v-8.623h3.361z"></path>
<path fill="#81818b" style="fill: var(--color1, #81818b)" d="M89.761 11.987c1.75 0 3.095 0.406 4.033 1.217 0.939 0.798 1.407 2.009 1.407 3.632v6.229h-3.066v-1.36c-0.616 1.015-1.764 1.522-3.445 1.522-0.869 0-1.625-0.142-2.27-0.426-0.629-0.284-1.113-0.676-1.449-1.177s-0.504-1.069-0.504-1.704c0-1.015 0.392-1.813 1.176-2.394 0.798-0.582 2.024-0.872 3.677-0.872h2.604c0-0.69-0.217-1.217-0.651-1.583-0.434-0.379-1.085-0.568-1.953-0.568-0.602 0-1.198 0.095-1.785 0.284-0.574 0.176-1.065 0.419-1.471 0.73l-1.176-2.212c0.616-0.419 1.351-0.744 2.205-0.974 0.869-0.23 1.758-0.345 2.668-0.345zM89.509 21.097c0.56 0 1.057-0.122 1.491-0.365 0.434-0.257 0.743-0.629 0.925-1.116v-1.116h-2.247c-1.345 0-2.017 0.426-2.017 1.278 0 0.406 0.161 0.73 0.483 0.974 0.336 0.23 0.791 0.345 1.365 0.345z"></path>
<path fill="#81818b" style="fill: var(--color1, #81818b)" d="M104.405 22.538c-0.322 0.23-0.721 0.406-1.197 0.528-0.462 0.108-0.953 0.162-1.47 0.162-1.344 0-2.388-0.331-3.129-0.994-0.729-0.663-1.093-1.637-1.093-2.922v-4.484h-1.743v-2.435h1.743v-2.658h3.277v2.658h2.814v2.435h-2.814v4.444c0 0.46 0.119 0.818 0.357 1.075 0.252 0.243 0.602 0.365 1.050 0.365 0.519 0 0.959-0.135 1.323-0.406l0.882 2.232z"></path>
<path fill="#81818b" style="fill: var(--color1, #81818b)" d="M116.58 12.149v10.916h-3.109v-1.299c-0.434 0.473-0.953 0.839-1.555 1.096-0.602 0.244-1.253 0.365-1.954 0.365-1.484 0-2.66-0.412-3.529-1.238s-1.302-2.049-1.302-3.673v-6.168h3.277v5.702c0 1.758 0.763 2.638 2.289 2.638 0.784 0 1.415-0.243 1.891-0.73 0.475-0.5 0.714-1.237 0.714-2.212v-5.397h3.277z"></path>
<path fill="#81818b" style="fill: var(--color1, #81818b)" d="M121.695 13.59c0.391-0.527 0.917-0.927 1.575-1.197 0.672-0.271 1.442-0.406 2.311-0.406v2.922c-0.364-0.027-0.61-0.041-0.735-0.041-0.939 0-1.674 0.257-2.206 0.771-0.532 0.5-0.798 1.258-0.798 2.273v5.154h-3.277v-10.916h3.13v1.441z"></path>
<path fill="#81818b" style="fill: var(--color1, #81818b)" d="M137.447 17.648c0 0.040-0.020 0.324-0.063 0.852h-8.549c0.153 0.676 0.518 1.21 1.092 1.603s1.288 0.588 2.142 0.588c0.588 0 1.106-0.081 1.554-0.244 0.463-0.176 0.889-0.446 1.282-0.812l1.744 1.826c-1.064 1.177-2.619 1.765-4.664 1.765-1.273 0-2.401-0.236-3.381-0.71-0.981-0.487-1.736-1.157-2.269-2.009s-0.798-1.819-0.798-2.901c0-1.069 0.259-2.029 0.778-2.881 0.532-0.866 1.253-1.535 2.163-2.009 0.925-0.487 1.954-0.73 3.088-0.73 1.106 0 2.107 0.23 3.004 0.69s1.596 1.123 2.101 1.989c0.518 0.852 0.777 1.846 0.777 2.983zM131.586 14.381c-0.742 0-1.365 0.203-1.869 0.609s-0.812 0.96-0.925 1.664h5.567c-0.112-0.69-0.421-1.238-0.925-1.644-0.504-0.419-1.12-0.629-1.849-0.629z"></path>
<path fill="#81818b" style="fill: var(--color1, #81818b)" d="M16.203 0.952c-0.499-0.279-1.115-0.279-1.614 0-3.546 1.982-5.938 5.689-5.938 9.938 0 0.606 0.049 1.2 0.142 1.78-2.441-0.801-5.085-0.509-7.244 0.692-0.5 0.278-0.808 0.793-0.807 1.35 0.003 2.939 1.583 5.804 4.414 7.383 1.389 0.775 2.905 1.143 4.4 1.143-0.227 0.623-0.351 1.293-0.351 1.991 0 3.303 2.772 5.979 6.19 5.979s6.19-2.677 6.19-5.979c0-0.7-0.124-1.371-0.353-1.995 1.406-0.043 2.822-0.412 4.127-1.139 2.831-1.579 4.412-4.444 4.414-7.383 0.001-0.557-0.307-1.072-0.807-1.35-2.074-1.154-4.595-1.469-6.954-0.782 0.084-0.552 0.128-1.116 0.128-1.691 0-4.249-2.392-7.957-5.938-9.938zM11.875 10.89c0-2.759 1.383-5.208 3.522-6.732 2.138 1.524 3.522 3.973 3.522 6.732s-1.383 5.208-3.522 6.732c-2.139-1.524-3.522-3.973-3.522-6.732zM21.753 16.061c1.488-0.83 3.208-0.927 4.711-0.401-0.28 1.52-1.227 2.91-2.715 3.74s-3.208 0.927-4.711 0.402c0.28-1.52 1.227-2.91 2.715-3.74zM4.054 15.659c1.502-0.525 3.222-0.429 4.711 0.401s2.435 2.221 2.715 3.74c-1.502 0.525-3.222 0.429-4.711-0.401s-2.435-2.221-2.715-3.74zM12.43 25.23c0-1.583 1.328-2.866 2.967-2.866s2.967 1.283 2.967 2.866c0 1.583-1.328 2.866-2.967 2.866s-2.967-1.283-2.967-2.866z"></path>
</symbol>
<symbol id="icon-client4" viewBox="0 0 164 32">
<path fill="#81818b" style="fill: var(--color1, #81818b)" d="M52.886 27.832c-2.357 0-4.44-0.475-6.25-1.424-1.81-0.971-3.209-2.341-4.198-4.109s-1.483-3.85-1.483-6.244 0.495-4.476 1.483-6.244c0.989-1.79 2.388-3.16 4.198-4.109 1.81-0.971 3.893-1.456 6.25-1.456 1.6 0 3.009 0.173 4.23 0.518 1.242 0.324 2.378 0.841 3.409 1.553v4.691c-0.926-0.776-1.988-1.337-3.188-1.682-1.179-0.367-2.525-0.55-4.040-0.55-1.41 0-2.683 0.302-3.819 0.906-1.115 0.582-1.999 1.424-2.651 2.524s-0.979 2.383-0.979 3.85c0 1.488 0.294 2.793 0.883 3.915 0.611 1.1 1.463 1.952 2.557 2.556s2.357 0.906 3.788 0.906c1.305 0 2.441-0.237 3.409-0.712v-4.368h-3.567v-3.624h8.207v10.903c-2.083 1.467-4.829 2.2-8.238 2.2z"></path>
<path fill="#81818b" style="fill: var(--color1, #81818b)" d="M62.233 11.816h4.608v2.232c0.611-0.755 1.463-1.327 2.557-1.715 1.094-0.41 2.336-0.615 3.725-0.615v3.721c-1.452 0-2.736 0.226-3.851 0.679-1.095 0.453-1.852 1.143-2.273 2.071v9.156h-4.767v-15.53z"></path>
<path fill="#81818b" style="fill: var(--color1, #81818b)" d="M82.283 27.832c-2.904 0-5.188-0.712-6.85-2.136-1.663-1.445-2.494-3.462-2.494-6.050 0-2.567 0.737-4.594 2.21-6.082 1.494-1.488 3.619-2.232 6.376-2.232 1.81 0 3.345 0.345 4.609 1.035 1.262 0.69 2.22 1.65 2.872 2.88 0.653 1.208 0.979 2.578 0.979 4.109v1.974h-12.5c0.337 1.985 2.146 2.977 5.429 2.977 0.968 0 1.968-0.086 2.999-0.259s1.926-0.41 2.683-0.712v3.43c-0.737 0.323-1.684 0.582-2.841 0.776s-2.315 0.291-3.472 0.291zM85.471 18.157c-0.063-1.035-0.442-1.833-1.136-2.394-0.695-0.582-1.652-0.874-2.873-0.874-1.199 0-2.146 0.291-2.841 0.874s-1.073 1.381-1.136 2.394h7.986z"></path>
<path fill="#81818b" style="fill: var(--color1, #81818b)" d="M99.754 27.832c-2.904 0-5.187-0.712-6.85-2.136-1.662-1.445-2.494-3.462-2.494-6.050 0-2.567 0.737-4.594 2.21-6.082 1.494-1.488 3.619-2.232 6.376-2.232 1.809 0 3.346 0.345 4.609 1.035 1.262 0.69 2.219 1.65 2.871 2.88 0.653 1.208 0.979 2.578 0.979 4.109v1.974h-12.5c0.337 1.985 2.147 2.977 5.43 2.977 0.968 0 1.968-0.086 2.998-0.259 1.031-0.172 1.926-0.41 2.683-0.712v3.43c-0.736 0.323-1.683 0.582-2.84 0.776-1.158 0.194-2.315 0.291-3.473 0.291zM102.943 18.157c-0.064-1.035-0.442-1.833-1.136-2.394-0.696-0.582-1.653-0.874-2.873-0.874-1.2 0-2.146 0.291-2.841 0.874s-1.073 1.381-1.137 2.394h7.987z"></path>
<path fill="#81818b" style="fill: var(--color1, #81818b)" d="M108.515 11.816h4.607v1.909c0.696-0.798 1.516-1.391 2.463-1.78 0.968-0.41 1.978-0.615 3.030-0.615 2.063 0 3.599 0.572 4.608 1.715 1.032 1.122 1.548 2.642 1.548 4.562v9.739h-4.767v-9.189c0-2.006-0.905-3.009-2.715-3.009-0.799 0-1.546 0.205-2.241 0.615-0.694 0.388-1.283 0.971-1.768 1.747v9.836h-4.765v-15.53z"></path>
<path fill="#81818b" style="fill: var(--color1, #81818b)" d="M128.975 9.422c-0.736 0-1.356-0.248-1.861-0.744s-0.758-1.122-0.758-1.877c0-0.733 0.252-1.348 0.758-1.844 0.505-0.518 1.125-0.776 1.861-0.776s1.358 0.259 1.863 0.776c0.505 0.496 0.758 1.111 0.758 1.844 0 0.755-0.253 1.38-0.758 1.877s-1.126 0.744-1.863 0.744zM126.577 11.816h4.798v15.53h-4.798v-15.53z"></path>
<path fill="#81818b" style="fill: var(--color1, #81818b)" d="M139.504 27.832c-1.136 0-2.357-0.13-3.662-0.389-1.283-0.237-2.293-0.582-3.030-1.035v-3.818c0.842 0.518 1.852 0.938 3.030 1.262 1.179 0.323 2.273 0.485 3.283 0.485 0.863 0 1.494-0.075 1.894-0.226 0.399-0.151 0.599-0.431 0.599-0.841 0-0.323-0.115-0.582-0.347-0.776-0.231-0.216-0.589-0.399-1.073-0.55-0.463-0.173-1.242-0.421-2.336-0.744-1.283-0.388-2.294-0.776-3.030-1.165-0.715-0.41-1.262-0.917-1.641-1.521-0.358-0.604-0.537-1.381-0.537-2.329 0-1.618 0.62-2.826 1.863-3.624 1.262-0.82 2.966-1.229 5.113-1.229 1.052 0 2.136 0.119 3.251 0.356 1.136 0.216 2.010 0.507 2.62 0.874v3.721c-0.61-0.41-1.41-0.744-2.399-1.003-0.968-0.259-1.915-0.388-2.841-0.388-0.863 0-1.536 0.086-2.020 0.259-0.463 0.173-0.695 0.496-0.695 0.971 0 0.41 0.221 0.723 0.663 0.938 0.463 0.216 1.316 0.485 2.557 0.809l0.632 0.162c1.325 0.367 2.356 0.776 3.093 1.23 0.736 0.431 1.252 0.96 1.547 1.585 0.315 0.604 0.473 1.37 0.473 2.297 0 1.424-0.6 2.567-1.799 3.43-1.199 0.841-2.936 1.262-5.208 1.262z"></path>
<path fill="#81818b" style="fill: var(--color1, #81818b)" d="M147.613 3.436h4.766v10.159c0.716-0.755 1.526-1.316 2.43-1.682 0.906-0.388 1.874-0.582 2.905-0.582 2.062 0 3.598 0.572 4.608 1.715 1.031 1.122 1.547 2.642 1.547 4.562v9.739h-4.766v-9.189c0-2.006-0.905-3.009-2.715-3.009-0.8 0-1.546 0.205-2.241 0.615-0.695 0.388-1.284 0.971-1.768 1.747v9.836h-4.766v-23.91z"></path>
<path fill="#81818b" style="fill: var(--color1, #81818b)" d="M24.677 8.014c0 4.11-3.25 7.441-7.26 7.441s-7.26-3.332-7.26-7.441c0-4.11 3.25-7.441 7.26-7.441s7.26 3.332 7.26 7.441zM0.53 14.915c7.91-0.546 14.803 5.524 15.445 13.648 0.066 0.842 0.063 1.673-0.005 2.488-7.91 0.546-14.803-5.524-15.445-13.648-0.066-0.842-0.063-1.673 0.005-2.488zM21.088 30.766c7.926-0.658 13.848-7.724 13.315-15.831-0.795-0.070-1.605-0.073-2.427-0.005-7.926 0.658-13.848 7.724-13.315 15.831 0.795 0.070 1.605 0.073 2.427 0.005z"></path>
</symbol>
<symbol id="icon-client5" viewBox="0 0 150 32">
<path fill="#81818b" style="fill: var(--color1, #81818b)" d="M5.457 7.889c2.505-3.202 6.518-5.277 11.040-5.277 4.549 0 8.581 2.099 11.084 5.333-0.107 0.104-0.204 0.212-0.291 0.32-0.458 0.564-0.803 1.29-1.079 2.028-0.556 1.484-0.981 3.422-1.374 5.237l-0.035 0.163c-0.392 1.812-0.756 3.496-1.197 4.747-0.198 0.562-0.386 0.959-0.552 1.214-0.174-0.256-0.371-0.659-0.579-1.228-0.471-1.287-0.868-3.036-1.288-4.905l-0.014-0.061c-0.404-1.795-0.832-3.699-1.366-5.157-0.268-0.732-0.598-1.451-1.028-2.010-0.423-0.548-1.126-1.167-2.155-1.167-1.022 0-1.729 0.612-2.158 1.154-0.439 0.555-0.781 1.271-1.063 2.004-0.568 1.475-1.032 3.405-1.464 5.222l-0.045 0.188c-0.428 1.8-0.828 3.483-1.281 4.736-0.173 0.479-0.337 0.843-0.485 1.103-0.145-0.259-0.304-0.621-0.473-1.095-0.435-1.226-0.817-2.862-1.226-4.619l-0.072-0.308c-0.424-1.818-0.885-3.752-1.461-5.231-0.286-0.735-0.636-1.455-1.089-2.013-0.103-0.126-0.219-0.254-0.35-0.377zM3.941 10.348c0.119 0.224 0.246 0.501 0.376 0.837 0.498 1.281 0.92 3.029 1.355 4.891l0.085 0.363c0.396 1.7 0.808 3.467 1.293 4.833 0.258 0.727 0.569 1.438 0.97 1.991 0.379 0.523 1.059 1.198 2.104 1.198 1.042 0 1.723-0.672 2.105-1.193 0.404-0.552 0.721-1.262 0.984-1.989 0.504-1.393 0.934-3.202 1.345-4.934v-0l0.063-0.265c0.443-1.864 0.869-3.615 1.364-4.901 0.229-0.596 0.444-1.010 0.631-1.268 0.177 0.255 0.379 0.664 0.594 1.249 0.471 1.287 0.867 3.037 1.288 4.905l0.014 0.061c0.404 1.795 0.832 3.699 1.366 5.156 0.268 0.733 0.598 1.452 1.028 2.010 0.423 0.549 1.126 1.167 2.154 1.167 1.034 0 1.735-0.624 2.152-1.178 0.424-0.561 0.743-1.283 1-2.014 0.495-1.405 0.889-3.227 1.264-4.961v0l0.054-0.252c0.404-1.866 0.792-3.609 1.271-4.886 0.104-0.278 0.206-0.515 0.303-0.714 0.734 1.598 1.141 3.363 1.141 5.218 0 7.214-6.154 13.062-13.747 13.062s-13.747-5.848-13.747-13.062c0-1.897 0.426-3.7 1.191-5.327zM16.497 0c-9.111 0-16.497 7.018-16.497 15.674s7.386 15.674 16.497 15.674c9.111 0 16.496-7.017 16.496-15.674s-7.385-15.674-16.496-15.674zM16.811 9.693c0 0-0.003 0.003-0.010 0.006 0.006-0.005 0.010-0.007 0.010-0.006zM16.431 9.695c-0.006-0.004-0.009-0.006-0.009-0.007s0.003 0.001 0.009 0.007zM22.849 21.901c0 0 0.003-0.003 0.009-0.006-0.006 0.005-0.009 0.007-0.009 0.006zM23.248 21.891c0.006 0.004 0.010 0.006 0.010 0.006s-0.003-0.002-0.010-0.006zM9.841 21.925c0-0 0.004-0.004 0.012-0.009-0.008 0.007-0.012 0.010-0.012 0.009zM10.398 21.918c0.008 0.005 0.012 0.009 0.012 0.009s-0.004-0.002-0.012-0.009z"></path>
<path fill="#81818b" style="fill: var(--color1, #81818b)" d="M42.102 24.954l-4-13.002h3.504l2.373 9.358 2.759-9.358h3.918l2.759 9.358 2.4-9.358h3.504l-4.028 13.002h-3.669l-2.925-9.725-2.924 9.725h-3.67z"></path>
<path fill="#81818b" style="fill: var(--color1, #81818b)" d="M64.459 25.268c-1.177 0-2.143-0.175-2.897-0.525-0.754-0.367-1.315-0.847-1.683-1.442s-0.551-1.249-0.551-1.966c0-1.206 0.496-2.184 1.489-2.936s2.483-1.127 4.47-1.127h3.476v-0.314c0-0.891-0.267-1.547-0.8-1.966s-1.196-0.629-1.986-0.629c-0.718 0-1.343 0.166-1.876 0.498-0.533 0.315-0.865 0.786-0.993 1.415h-3.449c0.092-0.944 0.423-1.765 0.993-2.464 0.589-0.699 1.343-1.232 2.262-1.599 0.92-0.384 1.95-0.577 3.090-0.577 1.95 0 3.485 0.463 4.608 1.389s1.683 2.237 1.683 3.932v7.995h-3.008l-0.331-2.097c-0.405 0.699-0.975 1.275-1.71 1.73-0.718 0.454-1.646 0.681-2.787 0.681zM65.259 22.647c1.012 0 1.793-0.315 2.345-0.944 0.57-0.629 0.929-1.407 1.077-2.333h-3.008c-0.938 0-1.609 0.166-2.014 0.498-0.404 0.314-0.607 0.708-0.607 1.18 0 0.507 0.203 0.9 0.607 1.18s0.938 0.419 1.6 0.419z"></path>
<path fill="#81818b" style="fill: var(--color1, #81818b)" d="M77.854 24.954l-5.021-13.002h3.696l3.476 9.83 3.476-9.83h3.697l-5.049 13.002h-4.276z"></path>
<path fill="#81818b" style="fill: var(--color1, #81818b)" d="M94.278 25.268c-1.38 0-2.602-0.28-3.669-0.839s-1.903-1.346-2.51-2.359c-0.607-1.013-0.91-2.184-0.91-3.512 0-1.346 0.294-2.543 0.882-3.591 0.607-1.049 1.435-1.861 2.483-2.438 1.066-0.594 2.317-0.891 3.752-0.891 1.342 0 2.529 0.28 3.559 0.839s1.83 1.328 2.4 2.307c0.589 0.961 0.883 2.036 0.883 3.224 0 0.192-0.010 0.393-0.028 0.603 0 0.21-0.009 0.428-0.027 0.655h-10.401c0.073 1.014 0.442 1.809 1.103 2.386 0.68 0.576 1.499 0.865 2.456 0.865 0.717 0 1.315-0.148 1.793-0.446 0.496-0.314 0.865-0.716 1.104-1.206h3.587c-0.258 0.822-0.69 1.573-1.296 2.255-0.589 0.664-1.325 1.188-2.208 1.573-0.864 0.384-1.848 0.577-2.951 0.577zM94.305 14.364c-0.864 0-1.627 0.236-2.29 0.708-0.662 0.454-1.085 1.153-1.269 2.097h6.815c-0.056-0.856-0.387-1.538-0.994-2.045s-1.36-0.76-2.262-0.76z"></path>
<path fill="#81818b" style="fill: var(--color1, #81818b)" d="M103.013 24.954v-18.873h3.532v18.873h-3.532z"></path>
<path fill="#81818b" style="fill: var(--color1, #81818b)" d="M115.698 25.268c-1.38 0-2.602-0.28-3.669-0.839s-1.904-1.346-2.511-2.359c-0.607-1.013-0.91-2.184-0.91-3.512 0-1.346 0.293-2.543 0.881-3.591 0.608-1.049 1.435-1.861 2.484-2.438 1.066-0.594 2.317-0.891 3.751-0.891 1.343 0 2.529 0.28 3.559 0.839s1.83 1.328 2.4 2.307c0.589 0.961 0.883 2.036 0.883 3.224 0 0.192-0.009 0.393-0.027 0.603 0 0.21-0.010 0.428-0.028 0.655h-10.401c0.074 1.014 0.442 1.809 1.104 2.386 0.68 0.576 1.499 0.865 2.456 0.865 0.717 0 1.315-0.148 1.793-0.446 0.497-0.314 0.865-0.716 1.104-1.206h3.588c-0.258 0.822-0.69 1.573-1.297 2.255-0.589 0.664-1.324 1.188-2.207 1.573-0.864 0.384-1.849 0.577-2.952 0.577zM115.726 14.364c-0.864 0-1.627 0.236-2.29 0.708-0.662 0.454-1.084 1.153-1.269 2.097h6.815c-0.056-0.856-0.386-1.538-0.993-2.045s-1.361-0.76-2.263-0.76z"></path>
<path fill="#81818b" style="fill: var(--color1, #81818b)" d="M130.090 25.268c-1.213 0-2.28-0.184-3.2-0.55-0.92-0.385-1.656-0.909-2.207-1.573s-0.883-1.433-0.993-2.306h3.558c0.111 0.506 0.405 0.944 0.883 1.311 0.496 0.35 1.131 0.524 1.904 0.524s1.333-0.148 1.682-0.446c0.368-0.297 0.552-0.638 0.552-1.022 0-0.559-0.257-0.935-0.773-1.127-0.515-0.21-1.232-0.411-2.152-0.603-0.588-0.122-1.186-0.271-1.793-0.446s-1.168-0.393-1.682-0.655c-0.497-0.28-0.901-0.629-1.215-1.049-0.312-0.437-0.468-0.97-0.468-1.599 0-1.153 0.478-2.123 1.434-2.91 0.975-0.786 2.335-1.18 4.083-1.18 1.618 0 2.906 0.358 3.862 1.075 0.975 0.716 1.554 1.704 1.738 2.962h-3.338c-0.202-0.961-0.965-1.442-2.289-1.442-0.663 0-1.178 0.122-1.545 0.367-0.349 0.245-0.524 0.55-0.524 0.917 0 0.384 0.266 0.69 0.8 0.918s1.241 0.437 2.124 0.629c0.956 0.21 1.829 0.446 2.62 0.708 0.81 0.245 1.454 0.62 1.932 1.127 0.478 0.489 0.717 1.197 0.717 2.123 0.019 0.804-0.202 1.529-0.662 2.176s-1.122 1.153-1.987 1.52c-0.864 0.367-1.884 0.55-3.062 0.55z"></path>
<path fill="#81818b" style="fill: var(--color1, #81818b)" d="M143.482 25.268c-1.214 0-2.281-0.184-3.2-0.55-0.92-0.385-1.656-0.909-2.207-1.573s-0.883-1.433-0.994-2.306h3.559c0.111 0.506 0.404 0.944 0.882 1.311 0.497 0.35 1.131 0.524 1.904 0.524s1.334-0.148 1.683-0.446c0.368-0.297 0.552-0.638 0.552-1.022 0-0.559-0.258-0.935-0.773-1.127-0.515-0.21-1.232-0.411-2.152-0.603-0.589-0.122-1.186-0.271-1.793-0.446s-1.168-0.393-1.683-0.655c-0.496-0.28-0.901-0.629-1.214-1.049-0.313-0.437-0.469-0.97-0.469-1.599 0-1.153 0.479-2.123 1.435-2.91 0.975-0.786 2.335-1.18 4.082-1.18 1.619 0 2.906 0.358 3.863 1.075 0.975 0.716 1.553 1.704 1.738 2.962h-3.338c-0.202-0.961-0.965-1.442-2.29-1.442-0.662 0-1.178 0.122-1.545 0.367-0.349 0.245-0.524 0.55-0.524 0.917 0 0.384 0.266 0.69 0.8 0.918s1.242 0.437 2.124 0.629c0.957 0.21 1.83 0.446 2.621 0.708 0.809 0.245 1.454 0.62 1.931 1.127 0.478 0.489 0.718 1.197 0.718 2.123 0.018 0.804-0.202 1.529-0.662 2.176s-1.122 1.153-1.987 1.52c-0.864 0.367-1.885 0.55-3.062 0.55z"></path>
</symbol>
<symbol id="icon-mouse" viewBox="0 0 32 32">
<path d="M6.797 9.45c0 0 0 0.005 0 0.005s-0.001 0.040-0.001 0.040c0 0 0 0.54 0 0.005v13c0 4.053 4.069 7.469 9.204 7.469s9.204-3.416 9.204-7.469v-13c0-4.053-4.069-7.469-9.204-7.469-5.114 0-9.171 3.389-9.203 7.419zM8.734 9.463c0.027-3.105 3.326-5.494 7.266-5.494 3.956 0 7.266 2.408 7.266 5.531 0 0 0 13 0 13 0 3.123-3.31 5.531-7.266 5.531s-7.266-2.408-7.266-5.531v-13c0 0.535 0-0.037 0-0.037z"></path>
<path d="M7.765 14.488h16.47c0.534 0 0.969-0.434 0.969-0.969s-0.435-0.969-0.969-0.969h-16.47c-0.534 0-0.969 0.435-0.969 0.969 0 0.535 0.435 0.969 0.969 0.969z"></path>
<path d="M16.5 13.519v-2.209c0-0.276-0.224-0.5-0.5-0.5s-0.5 0.224-0.5 0.5v2.209c0 0.276 0.224 0.5 0.5 0.5s0.5-0.224 0.5-0.5z"></path>
<path d="M16.5 5v-2c0-0.276-0.224-0.5-0.5-0.5s-0.5 0.224-0.5 0.5v2c0 0.276 0.224 0.5 0.5 0.5s0.5-0.224 0.5-0.5z"></path>
<path d="M14.439 6.772v0.001c-0.001 0.406 0 0.278 0 0.011v2.952c0 1.117 0.746 1.96 1.561 1.96s1.561-0.843 1.561-1.96v-2.952c0-1.118-0.746-1.961-1.561-1.961-0.812 0-1.556 0.837-1.561 1.949v0zM15.408 6.776c0.001-0.293 0.083-0.56 0.224-0.752 0.097-0.133 0.22-0.232 0.368-0.232s0.272 0.1 0.37 0.234c0.141 0.193 0.222 0.462 0.222 0.758 0 0 0 2.952 0 2.952 0 0.295-0.081 0.564-0.222 0.758-0.098 0.133-0.222 0.233-0.37 0.233s-0.272-0.1-0.37-0.233c-0.141-0.194-0.222-0.463-0.222-0.758 0 0 0-2.952 0-2.952 0 0.267 0-0.008 0-0.008z"></path>
</symbol>
<symbol id="icon-arrow-left" viewBox="0 0 32 32">
<path d="M0.527 16.333h30.91c0.194 0 0.351-0.157 0.351-0.351s-0.157-0.351-0.351-0.351h-30.91c-0.194 0-0.351 0.157-0.351 0.351s0.157 0.351 0.351 0.351z"></path>
<path d="M5.425 21.231c0.090 0 0.18-0.034 0.248-0.103 0.137-0.137 0.137-0.359 0-0.497l-4.649-4.649 4.649-4.649c0.137-0.137 0.137-0.359 0-0.497s-0.359-0.137-0.497 0l-4.897 4.897c-0.137 0.137-0.137 0.359 0 0.497l4.897 4.897c0.069 0.069 0.159 0.103 0.248 0.103z"></path>
</symbol>
<symbol id="icon-arrow-right" viewBox="0 0 32 32">
<path d="M31.437 16.333h-30.91c-0.194 0-0.351-0.157-0.351-0.351s0.157-0.351 0.351-0.351h30.91c0.194 0 0.351 0.157 0.351 0.351s-0.157 0.351-0.351 0.351z"></path>
<path d="M26.54 21.231c-0.090 0-0.18-0.034-0.248-0.103-0.137-0.137-0.137-0.359 0-0.497l4.649-4.649-4.649-4.649c-0.137-0.137-0.137-0.359 0-0.497s0.359-0.137 0.497 0l4.897 4.897c0.137 0.137 0.137 0.359 0 0.497l-4.897 4.897c-0.069 0.069-0.158 0.103-0.248 0.103z"></path>
</symbol>
<symbol id="icon-like-services" viewBox="0 0 32 32">
<path fill="#0089ff" style="fill: var(--color1, #0089ff)" opacity="0.06" d="M23.025 0h-14.221c-4.862 0-8.804 3.942-8.804 8.804v14.221c0 4.862 3.942 8.804 8.804 8.804h14.221c4.862 0 8.804-3.942 8.804-8.804v-14.221c0-4.862-3.942-8.804-8.804-8.804z"></path>
<path fill="#1b76ff" style="fill: var(--color2, #1b76ff)" d="M15.915 26.753c5.986 0 10.838-4.852 10.838-10.838s-4.852-10.838-10.838-10.838c-5.986 0-10.838 4.852-10.838 10.838s4.852 10.838 10.838 10.838z"></path>
<path fill="none" stroke="#fff" style="stroke: var(--color3, #fff)" stroke-linejoin="round" stroke-linecap="round" stroke-miterlimit="4" stroke-width="0.6772" d="M10.268 13.77h1.956v7.647h-1.956c-0.295 0-0.533-0.227-0.533-0.508v-6.631c0-0.28 0.239-0.508 0.533-0.508z"></path>
<path fill="none" stroke="#fff" style="stroke: var(--color3, #fff)" stroke-linejoin="round" stroke-linecap="round" stroke-miterlimit="4" stroke-width="0.6772" d="M21.499 19.985c-0.124 0.953-0.761 1.432-1.893 1.432h-5.923c-0.805 0-1.459-0.616-1.459-1.373v-6.264c1.878-0.183 2.818-0.839 2.818-2.602v-0.845c0-0.891 0.758-1.613 1.693-1.613 0.356 0 0.704 0.107 0.992 0.306 0.398 0.275 0.652 0.795 0.652 1.544v2.446c0 0.208 0.352 0.379 0.704 0.379h1.889c0.796 0 1.442 0.599 1.459 1.344 0.012 0.497-0.299 2.034-0.933 5.247z"></path>
</symbol>
<symbol id="icon-bitkoin-services" viewBox="0 0 32 32">
<path fill="#ff6f35" style="fill: var(--color1, #ff6f35)" opacity="0.06" d="M23.284 0.112h-14.221c-4.862 0-8.804 3.942-8.804 8.804v14.221c0 4.862 3.942 8.804 8.804 8.804h14.221c4.862 0 8.804-3.942 8.804-8.804v-14.221c0-4.862-3.942-8.804-8.804-8.804z"></path>
<path fill="#ffcd1d" style="fill: var(--color2, #ffcd1d)" d="M16.174 26.864c5.986 0 10.838-4.852 10.838-10.838s-4.852-10.838-10.838-10.838c-5.986 0-10.838 4.852-10.838 10.838s4.852 10.838 10.838 10.838z"></path>
<path fill="none" stroke="#fff" style="stroke: var(--color3, #fff)" stroke-linejoin="round" stroke-linecap="round" stroke-miterlimit="4" stroke-width="1.0158" d="M16.174 9.198v13.657"></path>
<path fill="none" stroke="#fff" style="stroke: var(--color3, #fff)" stroke-linejoin="round" stroke-linecap="round" stroke-miterlimit="4" stroke-width="1.0158" d="M19.278 11.681h-4.656c-0.576 0-1.129 0.229-1.536 0.636s-0.636 0.96-0.636 1.536 0.229 1.129 0.636 1.536c0.407 0.407 0.96 0.636 1.536 0.636h3.104c0.576 0 1.129 0.229 1.536 0.636s0.636 0.96 0.636 1.536c0 0.576-0.229 1.129-0.636 1.536s-0.96 0.636-1.536 0.636h-5.277"></path>
</symbol>
<symbol id="icon-email-services" viewBox="0 0 32 32">
<path fill="#f6ca4f" style="fill: var(--color4, #f6ca4f)" opacity="0.06" d="M23.469 0h-14.298c-4.888 0-8.851 3.963-8.851 8.851v14.298c0 4.888 3.963 8.851 8.851 8.851h14.298c4.888 0 8.851-3.963 8.851-8.851v-14.298c0-4.888-3.963-8.851-8.851-8.851z"></path>
<path fill="#ff6d35" style="fill: var(--color5, #ff6d35)" d="M16.32 26.896c6.018 0 10.896-4.878 10.896-10.896s-4.878-10.896-10.896-10.896c-6.018 0-10.896 4.878-10.896 10.896s4.878 10.896 10.896 10.896z"></path>
<path fill="none" stroke="#fff" style="stroke: var(--color3, #fff)" stroke-linejoin="round" stroke-linecap="round" stroke-miterlimit="10" stroke-width="0.8421" d="M20.341 20.915h-8.043c-0.983 0-1.787-0.804-1.787-1.787v-6.255c0-0.983 0.804-1.787 1.787-1.787h8.043c0.983 0 1.787 0.804 1.787 1.787v6.255c0 0.983-0.804 1.787-1.787 1.787z"></path>
<path fill="none" stroke="#fff" style="stroke: var(--color3, #fff)" stroke-linejoin="round" stroke-linecap="round" stroke-miterlimit="10" stroke-width="0.8421" d="M10.512 13.319l5.809 3.574 5.809-3.574"></path>
</symbol>
<symbol id="icon-search-services" viewBox="0 0 32 32">
<path fill="#5cc97b" style="fill: var(--color6, #5cc97b)" opacity="0.06" d="M22.982 0.357h-14.037c-4.799 0-8.689 3.89-8.689 8.689v14.037c0 4.799 3.89 8.689 8.689 8.689h14.037c4.799 0 8.689-3.89 8.689-8.689v-14.037c0-4.799-3.89-8.689-8.689-8.689z"></path>
<path fill="#5cc97b" style="fill: var(--color6, #5cc97b)" d="M15.964 26.762c5.908 0 10.697-4.789 10.697-10.697s-4.789-10.697-10.697-10.697c-5.908 0-10.697 4.789-10.697 10.697s4.789 10.697 10.697 10.697z"></path>
<path fill="#fff" style="fill: var(--color3, #fff)" d="M17.109 18.713l2.806 3.107c0.376 0.408 1.005 0.446 1.425 0.093l0.019-0.016 0.018-0.016c0.387-0.391 0.4-1.021 0.024-1.429l-3.049-2.96c0.464-0.677 0.749-1.488 0.786-2.368 0.103-2.497-1.838-4.605-4.335-4.708s-4.605 1.837-4.709 4.335 1.838 4.606 4.335 4.709c0.987 0.041 1.914-0.238 2.68-0.745zM14.473 18.414c-1.921-0.079-3.414-1.701-3.335-3.622s1.701-3.414 3.622-3.335c1.921 0.079 3.414 1.701 3.335 3.622s-1.701 3.414-3.622 3.335z"></path>
</symbol>
<symbol id="icon-facebook" viewBox="0 0 32 32">
<path d="M20.1 16.747l0.7-3.733-3.5 0.001v-2.987c0-1.153 0.549-1.493 2.1-1.493h1.4v-3.733c0 0-1.435 0-2.8 0-2.85 0-4.9 1.818-4.9 5.227v2.987h-3.5v3.733h3.5v10.453h4.2v-10.453h2.8z"></path>
</symbol>
<symbol id="icon-instagram" viewBox="0 0 32 32">
<path d="M10.88 3.2h10.24c4.242 0 7.68 3.438 7.68 7.68v10.24c0 4.242-3.438 7.68-7.68 7.68h-10.24c-4.242 0-7.68-3.438-7.68-7.68v-10.24c0-4.242 3.438-7.68 7.68-7.68zM10.88 5.76c-2.828 0-5.12 2.292-5.12 5.12v10.24c0 2.828 2.292 5.12 5.12 5.12h10.24c2.828 0 5.12-2.292 5.12-5.12v-10.24c0-2.828-2.292-5.12-5.12-5.12h-10.24zM16 22.4c-3.535 0-6.4-2.865-6.4-6.4s2.865-6.4 6.4-6.4c3.535 0 6.4 2.865 6.4 6.4s-2.865 6.4-6.4 6.4zM16 19.84c2.121 0 3.84-1.719 3.84-3.84s-1.719-3.84-3.84-3.84c-2.121 0-3.84 1.719-3.84 3.84s1.719 3.84 3.84 3.84zM22.4 10.88c-0.707 0-1.28-0.573-1.28-1.28s0.573-1.28 1.28-1.28c0.707 0 1.28 0.573 1.28 1.28s-0.573 1.28-1.28 1.28z"></path>
</symbol>
<symbol id="icon-Linkedin" viewBox="0 0 32 32">
<path  d="M9.253 4.888c-0 0.707-0.282 1.385-0.782 1.885s-1.179 0.78-1.886 0.78c-0.707-0-1.385-0.282-1.885-0.782s-0.78-1.179-0.78-1.886c0-0.707 0.282-1.385 0.782-1.885s1.179-0.78 1.886-0.78c0.707 0 1.385 0.282 1.885 0.782s0.78 1.179 0.78 1.886zM9.333 9.528h-5.333v16.693h5.333v-16.693zM17.76 9.528h-5.307v16.693h5.253v-8.76c0-4.88 6.36-5.333 6.36 0v8.76h5.267v-10.573c0-8.227-9.413-7.92-11.627-3.88l0.053-2.24z"></path>
</symbol>
<symbol id="icon-twitter" viewBox="0 0 32 32">
<path d="M28.249 6.631c1.436-0.932 2.387-2.204 2.853-3.821-1.397 0.783-2.789 1.321-4.179 1.617-1.25-1.42-2.832-2.142-4.729-2.142-1.854 0-3.42 0.688-4.698 2.025-1.271 1.347-1.913 2.983-1.913 4.894 0 0.58 0.069 1.099 0.208 1.538-5.468-0.197-9.994-2.594-13.56-7.208-0.604 1.129-0.907 2.279-0.907 3.468 0 2.444 0.976 4.381 2.924 5.803-1.111-0.1-2.091-0.396-2.924-0.883 0 1.745 0.485 3.203 1.458 4.486 0.976 1.27 2.229 2.080 3.76 2.425-0.555 0.15-1.139 0.222-1.74 0.222-0.555 0-0.947-0.049-1.18-0.156 0.409 1.422 1.18 2.575 2.295 3.458 1.111 0.887 2.389 1.354 3.826 1.396-2.368 1.963-5.075 2.934-8.138 2.934-0.75 0-1.282-0.011-1.603-0.072 3.017 2.070 6.375 3.098 10.090 3.098 3.802 0 7.162-1.018 10.087-3.054 2.924-2.025 5.082-4.524 6.469-7.465 1.394-2.938 2.083-5.996 2.083-9.19v-0.879c1.347-1.071 2.437-2.277 3.271-3.609-1.209 0.55-2.459 0.924-3.751 1.114z"></path>
</symbol>
<symbol id="icon-youtube" viewBox="0 0 32 32">
<path d="M28.265 9.404c-0.294-1.183-1.162-2.114-2.263-2.43-1.996-0.574-10.002-0.574-10.002-0.574s-8.005 0-10.002 0.574c-1.101 0.316-1.969 1.247-2.263 2.43-0.535 2.143-0.535 6.615-0.535 6.615s0 4.472 0.535 6.615c0.294 1.182 1.162 2.075 2.263 2.391 1.996 0.574 10.002 0.574 10.002 0.574s8.005 0 10.002-0.574c1.101-0.316 1.969-1.209 2.263-2.391 0.535-2.143 0.535-6.615 0.535-6.615s0-4.472-0.535-6.615zM13.382 20.080v-8.12l6.691 4.060-6.691 4.060z"></path>
</symbol>
<symbol id="icon-Star" viewBox="0 0 36 32">
<path fill="#ffc54f" style="fill: var(--color1, #ffc54f)" d="M17.617 24.986l-10.254 6.719 3.221-11.828-9.559-7.676 12.245-0.591 4.346-11.463 4.346 11.463 12.245 0.591-9.559 7.676 3.221 11.828-10.254-6.719z"></path>
</symbol>
</defs>
</svg>
